<?xml version="1.0" standalone="no"?>
<!DOCTYPE svg PUBLIC "-//W3C//DTD SVG 20010904//EN"
 "http://www.w3.org/TR/2001/REC-SVG-20010904/DTD/svg10.dtd">
<svg version="1.0" xmlns="http://www.w3.org/2000/svg"
 width="853.000000pt" height="1280.000000pt" viewBox="0 0 853.000000 1280.000000"
 preserveAspectRatio="xMidYMid meet">

<g transform="translate(0.000000,1280.000000) scale(0.100000,-0.100000)"
fill="#000000" stroke="none">
<path d="M0 6400 l0 -6400 4265 0 4265 0 0 6400 0 6400 -4265 0 -4265 0 0
-6400z m4690 3164 c41 -9 86 -18 100 -19 15 -1 30 -11 36 -24 7 -14 14 -19 18
-12 13 20 31 11 43 -19 6 -16 18 -30 27 -30 8 0 23 -14 31 -30 9 -17 20 -28
26 -25 19 13 49 -6 49 -31 0 -13 5 -24 10 -24 13 0 13 -27 -1 -32 -5 -2 -7
-11 -4 -21 4 -9 12 -14 18 -10 6 3 7 1 3 -6 -4 -6 3 -33 16 -59 12 -26 23 -50
23 -54 0 -3 12 -16 27 -27 43 -35 59 -99 65 -270 4 -107 3 -152 -5 -147 -6 4
-13 -10 -17 -35 -5 -28 -3 -44 4 -49 7 -4 12 -29 11 -61 -1 -30 -2 -94 -2
-144 0 -117 -1 -124 -9 -119 -10 6 -30 -95 -28 -142 2 -48 -7 -118 -21 -164
-5 -19 -10 -50 -10 -68 0 -18 -4 -41 -9 -50 -14 -27 -24 -80 -11 -62 9 13 10
13 10 0 -1 -35 -41 -162 -64 -202 -14 -24 -32 -57 -41 -74 -12 -24 -34 -39
-88 -64 -117 -52 -118 -52 -196 -64 -13 -2 -26 -8 -30 -13 -10 -15 -68 -53
-73 -48 -2 3 -29 -2 -59 -11 -41 -13 -73 -15 -134 -9 -107 9 -170 10 -183 1
-30 -18 -122 20 -122 51 0 6 -13 26 -29 44 -16 17 -35 51 -41 75 -7 24 -19 49
-26 55 -19 16 -17 29 4 30 10 0 12 3 5 6 -7 2 -13 11 -13 18 0 9 28 20 81 31
45 10 88 24 95 32 8 8 32 13 57 12 66 -3 101 -1 94 6 -3 4 -23 8 -44 10 -93 9
-120 13 -148 25 l-30 13 32 4 c29 3 31 5 24 30 -4 15 -5 35 -3 45 3 17 16 18
184 13 99 -3 183 -7 186 -11 3 -3 -3 -12 -14 -20 -10 -8 -14 -15 -9 -15 22 0
111 36 132 55 l23 19 -58 12 c-31 7 -70 15 -86 19 -26 7 -29 6 -23 -14 5 -19
1 -21 -42 -21 -26 0 -52 5 -59 12 -9 9 -18 9 -37 0 -14 -7 -38 -12 -52 -12
-22 0 -25 4 -20 26 8 43 -27 57 -125 50 l-83 -5 61 20 c51 17 63 25 77 55 19
39 22 70 7 79 -14 8 -13 25 2 25 21 0 47 31 40 48 -21 56 -162 112 -162 64 0
-36 29 -62 70 -62 43 0 57 -12 36 -29 -15 -13 -63 -8 -80 9 -5 5 -20 10 -33
10 -32 0 -66 55 -58 95 6 37 48 75 82 75 28 0 73 35 73 57 0 7 4 13 9 13 14 0
64 168 55 188 -4 9 -9 60 -10 112 -2 122 -2 120 -14 120 -6 0 -30 14 -53 32
-41 31 -77 84 -77 113 0 14 -59 55 -79 55 -7 0 -29 11 -49 25 -22 15 -51 25
-72 25 -54 0 -91 20 -83 45 7 25 18 32 65 45 20 6 40 15 43 20 6 10 56 34 91
45 28 7 33 27 24 93 -5 42 -3 55 11 67 9 9 23 15 30 13 9 -2 14 7 15 25 1 33
2 34 38 43 25 6 28 4 23 -9 -3 -9 -2 -19 4 -22 5 -4 8 -1 7 6 -4 16 64 63 72
49 4 -6 30 4 68 27 119 73 119 73 217 68 50 -2 124 -11 165 -21z m-770 -642
c0 -8 91 -52 108 -52 6 0 16 -13 24 -30 7 -16 17 -30 22 -30 6 0 5 -5 -1 -11
-7 -7 -20 -4 -44 10 -52 30 -137 44 -232 39 -68 -3 -83 -2 -69 7 9 7 29 15 45
19 31 7 37 26 8 26 -11 0 -22 3 -25 8 -2 4 12 6 32 4 21 -2 48 1 62 7 30 12
70 14 70 3z m50 -109 c13 -14 13 -15 0 -7 -8 5 -31 14 -50 21 l-35 12 35 -5
c19 -3 42 -13 50 -21z m-174 -58 c9 -35 -1 -42 -26 -20 -15 14 -17 21 -9 32
17 20 28 16 35 -12z m134 4 c0 -5 -4 -9 -10 -9 -5 0 -10 7 -10 16 0 8 5 12 10
9 6 -3 10 -10 10 -16z m78 -1 c30 -25 6 -48 -49 -48 -33 0 -32 -2 -18 39 9 26
15 30 33 25 11 -3 27 -11 34 -16z m1435 -56 c10 -10 22 -45 28 -76 16 -91 -2
-165 -68 -277 -35 -58 -86 -188 -108 -277 -8 -30 -22 -63 -32 -74 -23 -26 -86
-58 -113 -58 -27 0 -26 33 4 151 13 52 27 114 30 139 4 25 11 59 16 75 27 92
34 127 36 196 3 111 26 158 95 192 65 31 90 33 112 9z m-1368 -14 c12 -11 -8
-38 -29 -39 -11 0 -15 -3 -9 -6 9 -3 5 -15 -14 -40 -21 -27 -24 -36 -14 -43
20 -12 5 -132 -19 -160 -47 -55 -59 -163 -28 -259 9 -30 8 -37 -8 -50 -19 -16
-21 -51 -3 -51 5 0 9 -4 9 -10 0 -13 -37 -13 -42 0 -6 18 -67 -8 -95 -40 -23
-27 -27 -30 -35 -15 -6 10 -5 21 2 31 10 12 8 14 -14 14 -14 0 -26 -4 -26 -10
0 -20 -31 -9 -42 15 -6 14 -15 25 -20 25 -4 0 -8 -11 -8 -25 0 -35 -13 -31
-45 15 -15 22 -32 40 -36 40 -5 0 -9 15 -10 33 0 17 -8 73 -18 122 -12 57 -15
96 -9 108 5 10 5 25 -2 38 -13 22 -4 99 11 99 5 0 11 11 15 25 3 13 15 27 25
30 10 4 19 11 19 16 0 5 12 9 26 9 14 0 23 4 20 8 -7 11 58 42 88 42 32 0 39
10 20 31 -24 27 -9 39 49 40 29 0 75 4 102 8 56 7 133 7 140 -1z m-807 -93
c-3 -39 0 -45 20 -50 21 -5 21 -7 7 -21 -24 -25 -31 -46 -30 -91 2 -50 -2 -53
-15 -17 -12 31 -1 224 13 224 5 0 7 -20 5 -45z m52 -305 c0 -5 -2 -10 -4 -10
-3 0 -8 5 -11 10 -3 6 -1 10 4 10 6 0 11 -4 11 -10z m870 -174 c0 -2 -7 -7
-16 -10 -8 -3 -12 -2 -9 4 6 10 25 14 25 6z m-159 -22 c12 -14 11 -16 -5 -13
-11 2 -21 10 -24 17 -5 17 13 15 29 -4z m99 -4 c13 -9 13 -10 0 -10 -8 0 -22
5 -30 10 -13 9 -13 10 0 10 8 0 22 -5 30 -10z m-226 -287 c3 -10 5 -20 4 -23
-2 -3 7 -21 20 -41 27 -45 28 -59 2 -59 -13 0 -20 7 -20 20 0 11 -7 23 -15 26
-16 6 -31 66 -20 83 9 16 23 13 29 -6z m993 -440 c-3 -43 -8 -85 -11 -94 -4
-8 -2 -26 3 -40 l10 -24 0 28 c1 15 6 27 12 27 14 0 33 -51 57 -155 12 -49 31
-135 44 -190 31 -133 31 -324 0 -470 -11 -55 -23 -134 -27 -175 -3 -41 -10
-100 -15 -130 -6 -30 -19 -113 -31 -185 -38 -239 -58 -293 -99 -267 -15 9 -20
8 -24 -6 -10 -34 -57 -270 -72 -362 -8 -52 -19 -117 -24 -145 -5 -27 -12 -86
-16 -130 -4 -44 -11 -81 -15 -83 -5 -2 -9 -21 -9 -43 0 -28 -6 -42 -20 -51
-16 -10 -19 -20 -15 -53 4 -30 3 -34 -3 -15 -8 24 -9 24 -14 -10 -7 -43 -45
-204 -58 -245 -5 -16 -12 -45 -15 -64 -3 -19 -8 -38 -11 -42 -14 -23 -103
-441 -104 -486 0 -17 -6 -34 -12 -36 -10 -4 -10 -7 -1 -14 20 -14 6 -141 -22
-199 -17 -36 -31 -110 -40 -207 -8 -90 -32 -180 -52 -194 -9 -7 -29 -13 -44
-13 -14 0 -38 -9 -52 -20 l-26 -21 -14 28 c-8 15 -28 73 -45 128 -31 100 -45
157 -77 315 -23 111 -44 200 -94 397 -22 89 -41 178 -41 197 0 20 -7 53 -15
73 -42 107 -215 840 -251 1063 -8 52 -22 120 -29 151 -52 200 -124 598 -125
680 0 57 -11 119 -41 235 -63 244 -66 401 -9 486 16 23 61 114 101 200 40 87
75 158 78 158 3 0 5 -32 3 -70 -6 -110 43 -222 241 -555 79 -133 202 -321 218
-335 3 -3 40 -57 82 -120 78 -118 94 -138 139 -178 l25 -23 95 143 c106 159
169 262 238 388 26 47 65 117 86 155 48 85 90 179 99 220 4 18 -6 4 -23 -32
-53 -108 -162 -241 -289 -353 -42 -38 -132 -91 -168 -101 -22 -6 -42 -14 -45
-18 -9 -11 -64 -47 -84 -54 -22 -9 -68 18 -64 37 2 7 -10 24 -27 38 -23 20
-29 33 -28 62 1 28 -6 43 -28 65 -27 27 -42 80 -19 66 6 -3 10 -1 10 6 0 6
-20 31 -45 55 -41 39 -60 84 -35 84 14 0 29 42 34 93 3 26 9 41 16 39 7 -1 21
8 32 20 11 13 25 22 30 20 6 -1 17 3 24 9 12 10 11 14 -7 23 -13 6 -24 17 -27
25 -3 8 -1 11 4 9 5 -3 18 -2 29 2 18 6 17 8 -10 23 -17 9 -24 16 -17 17 14 0
17 40 2 40 -16 0 -12 30 5 36 8 4 15 12 15 19 0 25 49 44 161 61 63 9 157 28
209 42 52 14 113 26 135 27 52 3 65 8 155 55 41 22 81 39 88 40 11 0 13 -17 9
-77z m-1032 -324 c12 -3 21 -14 23 -29 2 -13 11 -30 20 -36 16 -12 15 -14 -2
-27 -18 -13 -18 -14 2 -19 25 -7 42 -40 24 -46 -20 -6 -14 -28 11 -40 21 -10
21 -11 -8 -11 -24 -1 -40 10 -78 50 -26 28 -45 54 -42 57 3 4 10 0 15 -8 6 -8
10 -10 10 -5 0 18 -18 38 -28 31 -6 -4 -7 8 -1 37 14 62 19 73 27 60 4 -6 16
-12 27 -14z m824 -2173 c-9 -8 -10 -7 -5 7 3 10 7 28 7 40 2 16 3 14 6 -7 3
-16 -1 -34 -8 -40z m-12 -48 c-3 -7 -5 -2 -5 12 0 14 2 19 5 13 2 -7 2 -19 0
-25z m-40 -110 c-3 -8 -6 -5 -6 6 -1 11 2 17 5 13 3 -3 4 -12 1 -19z m-10
-130 c-10 -88 -77 -381 -111 -482 -12 -34 -14 -37 -20 -18 -4 11 -3 29 2 39 6
10 15 41 20 68 25 118 35 161 43 185 8 23 33 128 45 190 12 61 15 70 20 70 4
0 4 -24 1 -52z m3130 -84 c72 -28 66 -77 -15 -122 l-41 -23 -21 21 c-11 11
-20 29 -20 40 0 10 -5 30 -11 44 -24 52 27 71 108 40z m7 -400 c22 -22 20 -50
-5 -68 -26 -18 -42 -13 -59 18 -25 48 27 88 64 50z m268 -770 c-2 -10 -6 -36
-9 -57 -5 -36 -4 -38 20 -32 20 5 25 2 31 -17 9 -32 -33 -68 -80 -68 -27 0
-37 5 -41 20 -3 10 -16 26 -29 35 -13 8 -24 21 -24 28 0 15 79 101 100 110 23
9 35 2 32 -19z m-3739 -1061 c-7 -2 -19 -2 -25 0 -7 3 -2 5 12 5 14 0 19 -2
13 -5z m52 -48 c48 -47 19 -136 -39 -121 -23 6 -26 9 -16 21 7 8 19 15 27 15
8 0 13 6 10 13 -2 7 -16 11 -33 9 l-29 -2 28 15 c30 17 27 40 -4 30 -14 -5
-19 -2 -19 13 0 40 39 44 75 7z m60 -40 c9 -40 -3 -27 -15 15 -5 19 -6 29 -1
24 5 -5 12 -22 16 -39z m-140 -55 c3 -5 1 -10 -4 -10 -6 0 -11 5 -11 10 0 6 2
10 4 10 3 0 8 -4 11 -10z m25 -1004 c0 -2 3 -11 6 -20 4 -12 0 -16 -16 -16
-31 0 -19 -24 16 -31 l29 -7 -28 -1 c-20 -1 -31 -7 -34 -21 -6 -22 -11 -24
-32 -11 -19 12 -8 81 16 98 16 12 43 18 43 9z m140 -26 c0 -5 -7 -10 -16 -10
-8 0 -12 5 -9 10 3 6 10 10 16 10 5 0 9 -4 9 -10z"/>
<path d="M4812 9048 c-7 -7 -29 -14 -50 -15 -144 -9 -199 -17 -214 -31 -22
-19 -23 -52 -2 -52 9 0 13 5 9 13 -4 6 2 1 13 -12 10 -13 22 -20 25 -15 5 9
131 9 247 1 30 -2 78 -15 105 -28 28 -13 53 -25 57 -27 9 -4 4 65 -6 88 -3 8
-19 21 -35 28 -16 7 -42 24 -57 37 -31 27 -73 32 -92 13z m42 -24 c20 -8 21
-44 2 -44 -7 0 -16 11 -18 25 -6 28 -6 27 16 19z"/>
<path d="M5126 8961 c-17 -7 -16 -9 8 -24 25 -17 26 -17 26 2 0 24 -9 31 -34
22z"/>
<path d="M4598 8818 c-16 -5 -28 -14 -28 -19 0 -6 -3 -8 -8 -5 -17 10 -39 -22
-44 -67 -5 -45 -4 -48 21 -53 42 -9 47 -12 23 -13 -19 -1 -21 -4 -13 -19 12
-23 77 -45 116 -40 l30 4 -33 15 c-58 27 -20 38 141 41 l147 3 0 26 c0 42 -70
78 -200 104 -46 10 -55 16 -39 26 20 12 -79 10 -113 -3z m152 -84 c0 -8 -4
-14 -10 -14 -5 0 -10 9 -10 21 0 11 5 17 10 14 6 -3 10 -13 10 -21z m76 1 c19
-15 19 -15 0 -30 -11 -8 -28 -15 -37 -15 -15 0 -16 4 -6 30 13 34 16 35 43 15z
m-186 -15 c0 -21 -10 -24 -48 -14 -21 6 -21 7 -5 20 27 20 53 17 53 -6z"/>
<path d="M4874 8785 c8 -8 18 -15 22 -15 3 0 1 7 -6 15 -7 8 -17 15 -22 15 -5
0 -3 -7 6 -15z"/>
<path d="M4379 8221 c-31 -25 -18 -38 40 -42 48 -4 70 14 58 45 -9 23 -69 21
-98 -3z"/>
<path d="M4300 8016 c-5 -14 -14 -26 -20 -26 -5 0 -10 -4 -10 -10 0 -14 32
-12 50 3 19 14 20 49 3 54 -7 3 -17 -7 -23 -21z"/>
<path d="M4600 7967 c0 -8 12 -22 26 -32 24 -16 26 -16 22 0 -1 10 -13 24 -25
33 -20 13 -23 13 -23 -1z"/>
<path d="M4318 7903 c7 -3 16 -2 19 1 4 3 -2 6 -13 5 -11 0 -14 -3 -6 -6z"/>
<path d="M4956 7585 c-9 -26 -7 -32 5 -12 6 10 9 21 6 23 -2 3 -7 -2 -11 -11z"/>
<path d="M4061 7547 c-11 -28 8 -42 26 -19 16 22 16 29 -2 36 -10 4 -19 -2
-24 -17z"/>
<path d="M5410 8678 c1 -7 7 -24 15 -38 l15 -25 -2 34 c-3 32 -28 59 -28 29z"/>
<path d="M5430 8555 c0 -19 2 -35 4 -35 2 0 6 16 8 35 2 19 0 35 -4 35 -4 0
-8 -16 -8 -35z"/>
<path d="M5206 8244 c-10 -25 1 -29 14 -5 6 12 7 21 1 21 -5 0 -12 -7 -15 -16z"/>
<path d="M3887 8634 c-9 -9 2 -24 17 -24 7 0 21 7 32 15 18 14 17 14 -12 15
-17 0 -34 -3 -37 -6z"/>
<path d="M3874 8499 c-8 -14 11 -33 25 -25 16 10 13 36 -3 36 -8 0 -18 -5 -22
-11z"/>
<path d="M3717 8103 c-13 -12 -7 -43 7 -43 16 0 25 19 18 38 -5 13 -15 16 -25
5z"/>
<path d="M3635 8090 c-3 -5 3 -10 15 -10 12 0 18 5 15 10 -3 6 -10 10 -15 10
-5 0 -12 -4 -15 -10z"/>
</g>
</svg>
